<svg width="400" height="400" viewBox="0 0 400 400" fill="none" xmlns="http://www.w3.org/2000/svg">
<path d="M234.147 164.168C234.217 163.766 234.244 163.336 234.3 162.92C234.161 163.322 234.106 163.752 234.147 164.168Z" fill="#F3F3F3"/>
<path d="M171.298 280.068C170.688 281.163 169.496 281.759 168.249 281.62C163.717 281.08 159.116 280.775 154.446 280.775C149.776 280.775 145.161 281.08 140.643 281.62C139.395 281.773 138.217 281.163 137.594 280.068C121.31 251.048 94.3961 228.791 62.1053 218.632C60.2343 218.05 59.3612 215.958 60.2759 214.211C68.2169 199.022 73.2615 182.101 74.7583 164.168C74.7998 163.752 74.7444 163.322 74.6058 162.92C71.8341 154.66 70.3096 145.832 70.3096 136.63C70.3096 131.71 70.7531 126.888 71.5846 122.203C71.5846 122.176 71.5708 122.162 71.5708 122.134L71.5846 122.148C72.4023 117.575 73.6219 113.14 75.1463 108.857C72.5547 114.221 69.7414 120.125 68.7852 125.488C68.7852 125.488 68.7713 125.474 68.7574 125.474C68.7574 125.502 68.7713 125.516 68.7713 125.543C67.8843 130.56 67.4131 135.716 67.4131 140.996C67.4131 150.849 68.411 156.296 68.896 166.038C68.9238 166.496 69.1039 166.925 69.0623 167.369C67.4686 186.577 58.9455 204.704 50.4362 220.974C49.4661 222.832 50.3946 225.077 52.3903 225.714C86.9817 236.607 115.808 260.444 133.256 291.529C133.907 292.693 135.182 293.345 136.513 293.192C141.363 292.61 146.297 292.291 151.3 292.291C156.303 292.291 167.459 292.61 172.31 293.192C173.64 293.345 174.915 292.707 175.567 291.529C192.502 261.359 214.316 238.048 247.216 226.754C232.928 228.195 218.709 232.463 206.056 239.892C191.961 250.771 180.085 264.422 171.298 280.068Z" fill="#F3F3F3"/>
<path d="M234.147 164.168C234.217 163.766 234.244 163.336 234.3 162.92C234.161 163.322 234.106 163.752 234.147 164.168Z" fill="#F3F3F3"/>
<path d="M130.54 219.838C131.233 220.933 130.484 222.388 129.181 222.457C125.204 222.679 117.471 222.499 110.361 218.812C103.252 215.126 98.6368 208.931 96.5165 205.55C95.8235 204.455 96.5719 203 97.8746 202.93C101.852 202.709 109.585 202.889 116.695 206.575C123.804 210.262 128.433 216.47 130.54 219.838Z" fill="#F3F3F3"/>
<path d="M180.542 219.838C179.849 220.933 180.597 222.388 181.9 222.457C185.877 222.679 193.611 222.499 200.72 218.812C207.83 215.126 212.445 208.931 214.565 205.55C215.258 204.455 214.51 203 213.207 202.93C209.229 202.709 201.496 202.889 194.387 206.575C187.277 210.262 182.662 216.47 180.542 219.838Z" fill="#F3F3F3"/>
<path d="M166.17 262.925C166.6 264.796 166.545 266.861 165.796 269.009C164.577 272.487 161.555 275.162 157.952 275.938C150.884 277.449 144.662 272.099 144.662 265.308C144.662 264.477 144.759 263.687 144.939 262.911C145.216 261.733 146.408 261.012 147.6 261.165C150.164 261.497 152.824 261.678 155.555 261.678C158.285 261.678 160.932 261.497 163.496 261.165C164.701 261.012 165.893 261.733 166.17 262.925Z" fill="#F3F3F3"/>
<path d="M397.763 352.424C380.551 348.017 352.057 335.711 349.882 302.311C349.854 301.799 349.771 301.3 349.743 300.787C349.618 299.068 349.41 297.35 349.161 295.659C349.064 295.063 348.925 294.467 348.814 293.871C348.62 292.79 348.426 291.695 348.177 290.628C348.011 289.908 347.789 289.201 347.609 288.494C347.359 287.566 347.124 286.637 346.833 285.722C346.583 284.946 346.306 284.184 346.029 283.422C345.738 282.59 345.447 281.759 345.128 280.941C344.809 280.137 344.449 279.334 344.102 278.544C343.77 277.795 343.451 277.033 343.091 276.285C342.689 275.453 342.259 274.635 341.83 273.818C341.469 273.139 341.123 272.446 340.735 271.781C340.25 270.935 339.737 270.09 339.224 269.258C338.85 268.648 338.476 268.039 338.088 267.443C337.52 266.57 336.924 265.724 336.314 264.879C335.926 264.338 335.552 263.798 335.15 263.271C334.498 262.398 333.805 261.525 333.112 260.68C332.724 260.208 332.35 259.737 331.948 259.28C331.2 258.393 330.424 257.52 329.634 256.661C329.26 256.259 328.886 255.857 328.511 255.469C327.666 254.582 326.793 253.695 325.892 252.836C325.546 252.503 325.199 252.17 324.853 251.852C323.896 250.965 322.926 250.078 321.928 249.232C321.61 248.969 321.305 248.706 320.986 248.442C319.933 247.555 318.852 246.682 317.757 245.837C317.494 245.629 317.217 245.435 316.953 245.241C315.775 244.368 314.597 243.495 313.378 242.677C313.17 242.539 312.962 242.4 312.768 242.275C311.479 241.402 310.162 240.557 308.818 239.753C308.693 239.684 308.569 239.614 308.444 239.531C307.017 238.672 305.561 237.841 304.078 237.051C287.933 228.43 267.547 224.772 247.272 226.823C214.371 238.132 192.557 261.428 175.622 291.598C174.971 292.763 173.696 293.414 172.365 293.262C167.515 292.679 156.358 292.361 151.355 292.361C146.352 292.361 141.419 292.679 136.568 293.262C135.238 293.414 133.963 292.776 133.311 291.598C115.863 260.513 87.0371 236.676 52.4457 225.783C50.4362 225.146 49.5077 222.915 50.4916 221.044C59.0009 204.774 67.524 186.646 69.1177 167.438C69.1593 166.995 68.9792 166.551 68.9515 166.108C68.4525 156.365 67.4686 150.905 67.4686 141.065C67.4686 135.799 67.9398 130.629 68.8267 125.613C68.8267 125.585 68.8129 125.571 68.8129 125.543C68.8129 125.543 68.8267 125.557 68.8406 125.557C69.7968 120.194 72.6101 114.29 75.2017 108.927C75.9501 106.848 76.7401 104.797 77.6409 102.801C78.417 101.083 80.6066 100.473 82.1727 101.526C97.7776 112.184 109.544 128.052 114.935 146.636C115.226 147.634 115.96 148.424 116.944 148.757C129.029 152.693 141.918 154.841 155.319 154.841C168.041 154.841 180.306 152.9 191.864 149.325C192.876 149.006 193.638 148.188 193.916 147.177C199.237 128.371 211.073 112.294 226.83 101.526C228.382 100.459 230.572 101.083 231.348 102.801C236.018 113.14 238.638 124.615 238.638 136.7C238.638 145.888 237.127 154.73 234.341 162.976C234.286 163.392 234.258 163.821 234.189 164.223C235.519 180.216 239.691 195.391 246.204 209.25C268.198 208.488 288.196 212.895 304.286 220.337C306.143 221.196 308.361 220.143 308.721 218.12C310.329 209.181 311.174 199.979 311.174 190.582C311.174 102.649 238.222 31.7475 149.526 35.1152C68.8822 38.178 3.17798 103.882 0.115204 184.526C-3.25246 273.208 67.6487 346.174 155.582 346.174C183.452 346.174 209.59 338.815 232.221 325.968C308.652 297.197 273.437 388.914 397.736 358.3C400.715 357.497 400.785 353.187 397.763 352.424ZM385.9 356.499C360.705 362.708 344.532 362.001 333.085 358.203C330.299 357.275 330.174 353.298 332.974 352.369C341.552 349.486 348.371 342.779 351.392 334.269C352.265 331.83 355.467 331.373 356.88 333.549C364.267 344.871 377.114 350.013 385.928 352.272C388.215 352.84 388.187 355.931 385.9 356.499Z" fill="white"/>
</svg>
